<svg xmlns="http://www.w3.org/2000/svg" xmlns:svg="http://www.w3.org/2000/svg" id="svg8" width="1920" height="1188" version="1.1" viewBox="0 0 508 314.325"><defs id="defs2"><radialGradient id="XMLID_2_" cx="50" cy="5546.981" r="4.188" gradientTransform="matrix(222.4491,0,0,137.4382,-10324.87,-762120)" gradientUnits="userSpaceOnUse"><stop id="stop4" offset="0" style="stop-color:#405a70"/><stop id="stop6" offset=".089" style="stop-color:#3b5266"/><stop id="stop8" offset=".489" style="stop-color:#27333e"/><stop id="stop10" offset=".807" style="stop-color:#1b1f25"/><stop id="stop12" offset="1" style="stop-color:#16181c"/></radialGradient></defs><metadata id="metadata5"/><g id="layer1" transform="translate(397.59316,48.867117)"><g id="XMLID_16549_" transform="matrix(0.38660578,0,0,0.38662362,-452.72314,-84.28184)"><radialGradient id="radialGradient21147" cx="50" cy="5546.981" r="4.188" gradientTransform="matrix(222.4491,0,0,137.4382,-10324.87,-762120)" gradientUnits="userSpaceOnUse"><stop id="stop21137" offset="0" style="stop-color:#405a70"/><stop id="stop21139" offset=".089" style="stop-color:#3b5266"/><stop id="stop21141" offset=".489" style="stop-color:#27333e"/><stop id="stop21143" offset=".807" style="stop-color:#1b1f25"/><stop id="stop21145" offset="1" style="stop-color:#16181c"/></radialGradient><rect style="fill:url(#XMLID_2_)" id="XMLID_16548_" width="1313.9" height="813" x="142.6" y="91.6" class="st0"/><g id="XMLID_68007_"><g id="XMLID_68450_"><path style="opacity:.1;fill:#45d8ff" id="XMLID_68451_" d="m 1456.6,904.6 h -1314 v -813 h 1313.9 v 813 z M 143,904.2 H 1456.2 V 92 H 143 Z" class="st1"/></g><g id="XMLID_68448_"><rect style="opacity:.1;fill:#45d8ff" id="XMLID_68449_" width="1313.6" height=".4" x="142.8" y="888.3" class="st1"/></g><g id="XMLID_68446_"><rect style="opacity:.1;fill:#45d8ff" id="XMLID_68447_" width="1313.6" height=".4" x="142.8" y="872.3" class="st1"/></g><g id="XMLID_68444_"><rect style="opacity:.1;fill:#45d8ff" id="XMLID_68445_" width="1313.6" height=".4" x="142.8" y="856.4" class="st1"/></g><g id="XMLID_68442_"><rect style="opacity:.1;fill:#45d8ff" id="XMLID_68443_" width="1313.6" height=".4" x="142.8" y="840.5" class="st1"/></g><g id="XMLID_68440_"><rect style="opacity:.1;fill:#45d8ff" id="XMLID_68441_" width="1313.6" height=".4" x="142.8" y="840.5" class="st1"/></g><g id="XMLID_68438_"><rect style="opacity:.1;fill:#45d8ff" id="XMLID_68439_" width="1313.6" height=".4" x="142.8" y="840.5" class="st1"/></g><g id="XMLID_68436_"><rect style="opacity:.1;fill:#45d8ff" id="XMLID_68437_" width="1313.6" height=".4" x="142.8" y="840.5" class="st1"/></g><g id="XMLID_68430_"><rect style="opacity:.1;fill:#45d8ff" id="XMLID_68431_" width="1313.6" height=".4" x="142.8" y="824.5" class="st1"/></g><g id="XMLID_68428_"><rect style="opacity:.1;fill:#45d8ff" id="XMLID_68429_" width="1313.6" height=".4" x="142.8" y="808.6" class="st1"/></g><g id="XMLID_68426_"><rect style="opacity:.1;fill:#45d8ff" id="XMLID_68427_" width="1313.6" height=".4" x="142.8" y="792.7" class="st1"/></g><g id="XMLID_68424_"><rect style="opacity:.1;fill:#45d8ff" id="XMLID_68425_" width="1313.6" height=".4" x="142.8" y="776.7" class="st1"/></g><g id="XMLID_68422_"><rect style="opacity:.1;fill:#45d8ff" id="XMLID_68423_" width="1313.6" height=".4" x="142.8" y="776.7" class="st1"/></g><g id="XMLID_68420_"><rect style="opacity:.1;fill:#45d8ff" id="XMLID_68421_" width="1313.6" height=".4" x="142.8" y="776.7" class="st1"/></g><g id="XMLID_68418_"><rect style="opacity:.1;fill:#45d8ff" id="XMLID_68419_" width="1313.6" height=".4" x="142.8" y="776.7" class="st1"/></g><g style="opacity:.1" id="XMLID_68412_" class="st2"><rect style="fill:#45d8ff" id="XMLID_68413_" width="1313.6" height=".4" x="142.8" y="760.8" class="st3"/></g><g id="XMLID_68410_"><rect style="opacity:.1;fill:#45d8ff" id="XMLID_68411_" width="1313.6" height=".4" x="142.8" y="744.9" class="st1"/></g><g id="XMLID_68408_"><rect style="opacity:.1;fill:#45d8ff" id="XMLID_68409_" width="1313.6" height=".4" x="142.8" y="728.9" class="st1"/></g><g id="XMLID_68406_"><rect style="opacity:.1;fill:#45d8ff" id="XMLID_68407_" width="1313.6" height=".4" x="142.8" y="713" class="st1"/></g><g id="XMLID_68404_"><rect style="opacity:.1;fill:#45d8ff" id="XMLID_68405_" width="1313.6" height=".4" x="142.8" y="713" class="st1"/></g><g id="XMLID_68402_"><rect style="opacity:.1;fill:#45d8ff" id="XMLID_68403_" width="1313.6" height=".4" x="142.8" y="713" class="st1"/></g><g id="XMLID_68400_"><rect style="opacity:.1;fill:#45d8ff" id="XMLID_68401_" width="1313.6" height=".4" x="142.8" y="713" class="st1"/></g><g id="XMLID_68394_"><rect style="opacity:.1;fill:#45d8ff" id="XMLID_68395_" width="1313.6" height=".4" x="142.8" y="697.1" class="st1"/></g><g id="XMLID_68392_"><rect style="opacity:.1;fill:#45d8ff" id="XMLID_68393_" width="1313.6" height=".4" x="142.8" y="681.1" class="st1"/></g><g id="XMLID_68390_"><rect style="opacity:.1;fill:#45d8ff" id="XMLID_68391_" width="1313.6" height=".4" x="142.8" y="665.2" class="st1"/></g><g id="XMLID_68388_"><rect style="opacity:.1;fill:#45d8ff" id="XMLID_68389_" width="1313.6" height=".4" x="142.8" y="649.3" class="st1"/></g><g id="XMLID_68386_"><rect style="opacity:.1;fill:#45d8ff" id="XMLID_68387_" width="1313.6" height=".4" x="142.8" y="649.3" class="st1"/></g><g id="XMLID_68384_"><rect style="opacity:.1;fill:#45d8ff" id="XMLID_68385_" width="1313.6" height=".4" x="142.8" y="649.3" class="st1"/></g><g id="XMLID_68382_"><rect style="opacity:.1;fill:#45d8ff" id="XMLID_68383_" width="1313.6" height=".4" x="142.8" y="649.3" class="st1"/></g><g id="XMLID_68376_"><rect style="opacity:.1;fill:#45d8ff" id="XMLID_68377_" width="1313.6" height=".4" x="142.8" y="633.3" class="st1"/></g><g id="XMLID_68374_"><rect style="opacity:.1;fill:#45d8ff" id="XMLID_68375_" width="1313.6" height=".4" x="142.8" y="617.4" class="st1"/></g><g id="XMLID_68372_"><rect style="opacity:.1;fill:#45d8ff" id="XMLID_68373_" width="1313.6" height=".4" x="142.8" y="601.5" class="st1"/></g><g id="XMLID_68370_"><rect style="opacity:.1;fill:#45d8ff" id="XMLID_68371_" width="1313.6" height=".4" x="142.8" y="585.5" class="st1"/></g><g id="XMLID_68368_"><rect style="opacity:.1;fill:#45d8ff" id="XMLID_68369_" width="1313.6" height=".4" x="142.8" y="585.5" class="st1"/></g><g id="XMLID_68366_"><rect style="opacity:.1;fill:#45d8ff" id="XMLID_68367_" width="1313.6" height=".4" x="142.8" y="585.5" class="st1"/></g><g id="XMLID_68364_"><rect style="opacity:.1;fill:#45d8ff" id="XMLID_68365_" width="1313.6" height=".4" x="142.8" y="585.5" class="st1"/></g><g id="XMLID_68358_"><rect style="opacity:.1;fill:#45d8ff" id="XMLID_68359_" width="1313.6" height=".4" x="142.8" y="569.6" class="st1"/></g><g id="XMLID_68356_"><rect style="opacity:.1;fill:#45d8ff" id="XMLID_68357_" width="1313.6" height=".4" x="142.8" y="553.7" class="st1"/></g><g id="XMLID_68354_"><rect style="opacity:.1;fill:#45d8ff" id="XMLID_68355_" width="1313.6" height=".4" x="142.8" y="537.7" class="st1"/></g><g id="XMLID_68352_"><rect style="opacity:.1;fill:#45d8ff" id="XMLID_68353_" width="1313.6" height=".4" x="142.8" y="521.8" class="st1"/></g><g id="XMLID_68350_"><rect style="opacity:.1;fill:#45d8ff" id="XMLID_68351_" width="1313.6" height=".4" x="142.8" y="521.8" class="st1"/></g><g id="XMLID_68348_"><rect style="opacity:.1;fill:#45d8ff" id="XMLID_68349_" width="1313.6" height=".4" x="142.8" y="521.8" class="st1"/></g><g id="XMLID_68346_"><rect style="opacity:.1;fill:#45d8ff" id="XMLID_68347_" width="1313.6" height=".4" x="142.8" y="521.8" class="st1"/></g><g id="XMLID_68340_"><rect style="opacity:.1;fill:#45d8ff" id="XMLID_68341_" width="1313.6" height=".4" x="142.8" y="505.9" class="st1"/></g><g id="XMLID_68338_"><rect style="opacity:.1;fill:#45d8ff" id="XMLID_68339_" width="1313.6" height=".4" x="142.8" y="489.9" class="st1"/></g><g id="XMLID_68336_"><rect style="opacity:.1;fill:#45d8ff" id="XMLID_68337_" width="1313.6" height=".4" x="142.8" y="474" class="st1"/></g><g id="XMLID_68334_"><rect style="opacity:.1;fill:#45d8ff" id="XMLID_68335_" width="1313.6" height=".4" x="142.8" y="458.1" class="st1"/></g><g id="XMLID_68332_"><rect style="opacity:.1;fill:#45d8ff" id="XMLID_68333_" width="1313.6" height=".4" x="142.8" y="458.1" class="st1"/></g><g id="XMLID_68330_"><rect style="opacity:.1;fill:#45d8ff" id="XMLID_68331_" width="1313.6" height=".4" x="142.8" y="458.1" class="st1"/></g><g id="XMLID_68328_"><rect style="opacity:.1;fill:#45d8ff" id="XMLID_68329_" width="1313.6" height=".4" x="142.8" y="458.1" class="st1"/></g><g id="XMLID_68322_"><rect style="opacity:.1;fill:#45d8ff" id="XMLID_68323_" width="1313.6" height=".4" x="142.8" y="442.1" class="st1"/></g><g id="XMLID_68320_"><rect style="opacity:.1;fill:#45d8ff" id="XMLID_68321_" width="1313.6" height=".4" x="142.8" y="426.2" class="st1"/></g><g id="XMLID_68318_"><rect style="opacity:.1;fill:#45d8ff" id="XMLID_68319_" width="1313.6" height=".4" x="142.8" y="410.3" class="st1"/></g><g id="XMLID_68316_"><rect style="opacity:.1;fill:#45d8ff" id="XMLID_68317_" width="1313.6" height=".4" x="142.8" y="394.3" class="st1"/></g><g id="XMLID_68314_"><rect style="opacity:.1;fill:#45d8ff" id="XMLID_68315_" width="1313.6" height=".4" x="142.8" y="394.3" class="st1"/></g><g id="XMLID_68312_"><rect style="opacity:.1;fill:#45d8ff" id="XMLID_68313_" width="1313.6" height=".4" x="142.8" y="394.3" class="st1"/></g><g id="XMLID_68310_"><rect style="opacity:.1;fill:#45d8ff" id="XMLID_68311_" width="1313.6" height=".4" x="142.8" y="394.3" class="st1"/></g><g id="XMLID_68304_"><rect style="opacity:.1;fill:#45d8ff" id="XMLID_68305_" width="1313.6" height=".4" x="142.8" y="378.4" class="st1"/></g><g id="XMLID_68302_"><rect style="opacity:.1;fill:#45d8ff" id="XMLID_68303_" width="1313.6" height=".4" x="142.8" y="362.5" class="st1"/></g><g id="XMLID_68300_"><rect style="opacity:.1;fill:#45d8ff" id="XMLID_68301_" width="1313.6" height=".4" x="142.8" y="346.5" class="st1"/></g><g id="XMLID_68298_"><rect style="opacity:.1;fill:#45d8ff" id="XMLID_68299_" width="1313.6" height=".4" x="142.8" y="330.6" class="st1"/></g><g id="XMLID_68296_"><rect style="opacity:.1;fill:#45d8ff" id="XMLID_68297_" width="1313.6" height=".4" x="142.8" y="330.6" class="st1"/></g><g id="XMLID_68294_"><rect style="opacity:.1;fill:#45d8ff" id="XMLID_68295_" width="1313.6" height=".4" x="142.8" y="330.6" class="st1"/></g><g id="XMLID_68292_"><rect style="opacity:.1;fill:#45d8ff" id="XMLID_68293_" width="1313.6" height=".4" x="142.8" y="330.6" class="st1"/></g><g id="XMLID_68286_"><rect style="opacity:.1;fill:#45d8ff" id="XMLID_68287_" width="1313.6" height=".4" x="142.8" y="314.7" class="st1"/></g><g id="XMLID_68284_"><rect style="opacity:.1;fill:#45d8ff" id="XMLID_68285_" width="1313.6" height=".4" x="142.8" y="298.7" class="st1"/></g><g id="XMLID_68282_"><rect style="opacity:.1;fill:#45d8ff" id="XMLID_68283_" width="1313.6" height=".4" x="142.8" y="282.8" class="st1"/></g><g id="XMLID_68280_"><rect style="opacity:.1;fill:#45d8ff" id="XMLID_68281_" width="1313.6" height=".4" x="142.8" y="266.9" class="st1"/></g><g id="XMLID_68278_"><rect style="opacity:.1;fill:#45d8ff" id="XMLID_68279_" width="1313.6" height=".4" x="142.8" y="266.9" class="st1"/></g><g id="XMLID_68276_"><rect style="opacity:.1;fill:#45d8ff" id="XMLID_68277_" width="1313.6" height=".4" x="142.8" y="266.9" class="st1"/></g><g id="XMLID_68274_"><rect style="opacity:.1;fill:#45d8ff" id="XMLID_68275_" width="1313.6" height=".4" x="142.8" y="266.9" class="st1"/></g><g id="XMLID_68268_"><rect style="opacity:.1;fill:#45d8ff" id="XMLID_68269_" width="1313.6" height=".4" x="142.8" y="250.9" class="st1"/></g><g id="XMLID_68266_"><rect style="opacity:.1;fill:#45d8ff" id="XMLID_68267_" width="1313.6" height=".4" x="142.8" y="235" class="st1"/></g><g id="XMLID_68264_"><rect style="opacity:.1;fill:#45d8ff" id="XMLID_68265_" width="1313.6" height=".4" x="142.8" y="219.1" class="st1"/></g><g id="XMLID_68262_"><rect style="opacity:.1;fill:#45d8ff" id="XMLID_68263_" width="1313.6" height=".4" x="142.8" y="203.1" class="st1"/></g><g id="XMLID_68260_"><rect style="opacity:.1;fill:#45d8ff" id="XMLID_68261_" width="1313.6" height=".4" x="142.8" y="203.1" class="st1"/></g><g id="XMLID_68258_"><rect style="opacity:.1;fill:#45d8ff" id="XMLID_68259_" width="1313.6" height=".4" x="142.8" y="203.1" class="st1"/></g><g id="XMLID_68256_"><rect style="opacity:.1;fill:#45d8ff" id="XMLID_68257_" width="1313.6" height=".4" x="142.8" y="203.1" class="st1"/></g><g id="XMLID_68250_"><rect style="opacity:.1;fill:#45d8ff" id="XMLID_68251_" width="1313.6" height=".4" x="142.8" y="187.2" class="st1"/></g><g id="XMLID_68248_"><rect style="opacity:.1;fill:#45d8ff" id="XMLID_68249_" width="1313.6" height=".4" x="142.8" y="171.3" class="st1"/></g><g id="XMLID_68246_"><rect style="opacity:.1;fill:#45d8ff" id="XMLID_68247_" width="1313.6" height=".4" x="142.8" y="155.3" class="st1"/></g><g id="XMLID_68244_"><rect style="opacity:.1;fill:#45d8ff" id="XMLID_68245_" width="1313.6" height=".4" x="142.8" y="139.4" class="st1"/></g><g id="XMLID_68242_"><rect style="opacity:.1;fill:#45d8ff" id="XMLID_68243_" width="1313.6" height=".4" x="142.8" y="139.4" class="st1"/></g><g id="XMLID_68240_"><rect style="opacity:.1;fill:#45d8ff" id="XMLID_68241_" width="1313.6" height=".4" x="142.8" y="139.4" class="st1"/></g><g id="XMLID_68238_"><rect style="opacity:.1;fill:#45d8ff" id="XMLID_68239_" width="1313.6" height=".4" x="142.8" y="139.4" class="st1"/></g><g id="XMLID_68232_"><rect style="opacity:.1;fill:#45d8ff" id="XMLID_68233_" width="1313.6" height=".4" x="142.8" y="123.5" class="st1"/></g><g id="XMLID_68230_"><rect style="opacity:.1;fill:#45d8ff" id="XMLID_68231_" width="1313.6" height=".4" x="142.8" y="107.5" class="st1"/></g><g id="XMLID_68228_"><rect style="opacity:.1;fill:#45d8ff" id="XMLID_68229_" width=".3" height="812.6" x="1430.5" y="91.8" class="st1"/></g><g id="XMLID_68226_"><rect style="opacity:.1;fill:#45d8ff" id="XMLID_68227_" width=".3" height="812.6" x="1404.7" y="91.8" class="st1"/></g><g id="XMLID_68224_"><rect style="opacity:.1;fill:#45d8ff" id="XMLID_68225_" width=".3" height="812.6" x="1378.9" y="91.8" class="st1"/></g><g id="XMLID_68222_"><rect style="opacity:.1;fill:#45d8ff" id="XMLID_68223_" width=".3" height="812.6" x="1378.9" y="91.8" class="st1"/></g><g id="XMLID_68220_"><rect style="opacity:.1;fill:#45d8ff" id="XMLID_68221_" width=".3" height="812.6" x="1378.9" y="91.8" class="st1"/></g><g id="XMLID_68218_"><rect style="opacity:.1;fill:#45d8ff" id="XMLID_68219_" width=".3" height="812.6" x="1378.9" y="91.8" class="st1"/></g><g id="XMLID_68212_"><rect style="opacity:.1;fill:#45d8ff" id="XMLID_68213_" width=".3" height="812.6" x="1353.2" y="91.8" class="st1"/></g><g id="XMLID_68210_"><rect style="opacity:.1;fill:#45d8ff" id="XMLID_68211_" width=".3" height="812.6" x="1327.4" y="91.8" class="st1"/></g><g id="XMLID_68208_"><rect style="opacity:.1;fill:#45d8ff" id="XMLID_68209_" width=".3" height="812.6" x="1301.7" y="91.8" class="st1"/></g><g id="XMLID_68206_"><rect style="opacity:.1;fill:#45d8ff" id="XMLID_68207_" width=".3" height="812.6" x="1275.9" y="91.8" class="st1"/></g><g id="XMLID_68204_"><rect style="opacity:.1;fill:#45d8ff" id="XMLID_68205_" width=".3" height="812.6" x="1275.9" y="91.8" class="st1"/></g><g id="XMLID_68202_"><rect style="opacity:.1;fill:#45d8ff" id="XMLID_68203_" width=".3" height="812.6" x="1275.9" y="91.8" class="st1"/></g><g id="XMLID_68200_"><rect style="opacity:.1;fill:#45d8ff" id="XMLID_68201_" width=".3" height="812.6" x="1275.9" y="91.8" class="st1"/></g><g id="XMLID_68194_"><rect style="opacity:.1;fill:#45d8ff" id="XMLID_68195_" width=".3" height="812.6" x="1250.2" y="91.8" class="st1"/></g><g id="XMLID_68192_"><rect style="opacity:.1;fill:#45d8ff" id="XMLID_68193_" width=".3" height="812.6" x="1224.4" y="91.8" class="st1"/></g><g id="XMLID_68190_"><rect style="opacity:.1;fill:#45d8ff" id="XMLID_68191_" width=".3" height="812.6" x="1198.7" y="91.8" class="st1"/></g><g id="XMLID_68188_"><rect style="opacity:.1;fill:#45d8ff" id="XMLID_68189_" width=".3" height="812.6" x="1172.9" y="91.8" class="st1"/></g><g id="XMLID_68186_"><rect style="opacity:.1;fill:#45d8ff" id="XMLID_68187_" width=".3" height="812.6" x="1172.9" y="91.8" class="st1"/></g><g id="XMLID_68184_"><rect style="opacity:.1;fill:#45d8ff" id="XMLID_68185_" width=".3" height="812.6" x="1172.9" y="91.8" class="st1"/></g><g id="XMLID_68182_"><rect style="opacity:.1;fill:#45d8ff" id="XMLID_68183_" width=".3" height="812.6" x="1172.9" y="91.8" class="st1"/></g><g id="XMLID_68176_"><rect style="opacity:.1;fill:#45d8ff" id="XMLID_68177_" width=".3" height="812.6" x="1147.1" y="91.8" class="st1"/></g><g id="XMLID_68174_"><rect style="opacity:.1;fill:#45d8ff" id="XMLID_68175_" width=".3" height="812.6" x="1121.4" y="91.8" class="st1"/></g><g id="XMLID_68172_"><rect style="opacity:.1;fill:#45d8ff" id="XMLID_68173_" width=".3" height="812.6" x="1095.6" y="91.8" class="st1"/></g><g id="XMLID_68170_"><rect style="opacity:.1;fill:#45d8ff" id="XMLID_68171_" width=".3" height="812.6" x="1069.9" y="91.8" class="st1"/></g><g id="XMLID_68168_"><rect style="opacity:.1;fill:#45d8ff" id="XMLID_68169_" width=".3" height="812.6" x="1069.9" y="91.8" class="st1"/></g><g id="XMLID_68166_"><rect style="opacity:.1;fill:#45d8ff" id="XMLID_68167_" width=".3" height="812.6" x="1069.9" y="91.8" class="st1"/></g><g id="XMLID_68164_"><rect style="opacity:.1;fill:#45d8ff" id="XMLID_68165_" width=".3" height="812.6" x="1069.9" y="91.8" class="st1"/></g><g id="XMLID_68158_"><rect style="opacity:.1;fill:#45d8ff" id="XMLID_68159_" width=".3" height="812.6" x="1044.1" y="91.8" class="st1"/></g><g id="XMLID_68156_"><rect style="opacity:.1;fill:#45d8ff" id="XMLID_68157_" width=".3" height="812.6" x="1018.4" y="91.8" class="st1"/></g><g id="XMLID_68154_"><rect style="opacity:.1;fill:#45d8ff" id="XMLID_68155_" width=".3" height="812.6" x="992.6" y="91.8" class="st1"/></g><g id="XMLID_68152_"><rect style="opacity:.1;fill:#45d8ff" id="XMLID_68153_" width=".3" height="812.6" x="966.8" y="91.8" class="st1"/></g><g id="XMLID_68150_"><rect style="opacity:.1;fill:#45d8ff" id="XMLID_68151_" width=".3" height="812.6" x="966.8" y="91.8" class="st1"/></g><g id="XMLID_68148_"><rect style="opacity:.1;fill:#45d8ff" id="XMLID_68149_" width=".3" height="812.6" x="966.8" y="91.8" class="st1"/></g><g id="XMLID_68146_"><rect style="opacity:.1;fill:#45d8ff" id="XMLID_68147_" width=".3" height="812.6" x="966.8" y="91.8" class="st1"/></g><g id="XMLID_68140_"><rect style="opacity:.1;fill:#45d8ff" id="XMLID_68141_" width=".3" height="812.6" x="941.1" y="91.8" class="st1"/></g><g id="XMLID_68138_"><rect style="opacity:.1;fill:#45d8ff" id="XMLID_68139_" width=".3" height="812.6" x="915.3" y="91.8" class="st1"/></g><g id="XMLID_68136_"><rect style="opacity:.1;fill:#45d8ff" id="XMLID_68137_" width=".3" height="812.6" x="889.6" y="91.8" class="st1"/></g><g id="XMLID_68134_"><rect style="opacity:.1;fill:#45d8ff" id="XMLID_68135_" width=".3" height="812.6" x="863.8" y="91.8" class="st1"/></g><g id="XMLID_68132_"><rect style="opacity:.1;fill:#45d8ff" id="XMLID_68133_" width=".3" height="812.6" x="863.8" y="91.8" class="st1"/></g><g id="XMLID_68130_"><rect style="opacity:.1;fill:#45d8ff" id="XMLID_68131_" width=".3" height="812.6" x="863.8" y="91.8" class="st1"/></g><g id="XMLID_68128_"><rect style="opacity:.1;fill:#45d8ff" id="XMLID_68129_" width=".3" height="812.6" x="863.8" y="91.8" class="st1"/></g><g id="XMLID_68122_"><rect style="opacity:.1;fill:#45d8ff" id="XMLID_68123_" width=".3" height="812.6" x="838.1" y="91.8" class="st1"/></g><g id="XMLID_68120_"><rect style="opacity:.1;fill:#45d8ff" id="XMLID_68121_" width=".3" height="812.6" x="812.3" y="91.8" class="st1"/></g><g id="XMLID_68118_"><rect style="opacity:.1;fill:#45d8ff" id="XMLID_68119_" width=".3" height="812.6" x="786.5" y="91.8" class="st1"/></g><g id="XMLID_68116_"><rect style="opacity:.1;fill:#45d8ff" id="XMLID_68117_" width=".3" height="812.6" x="760.8" y="91.8" class="st1"/></g><g id="XMLID_68114_"><rect style="opacity:.1;fill:#45d8ff" id="XMLID_68115_" width=".3" height="812.6" x="760.8" y="91.8" class="st1"/></g><g id="XMLID_68112_"><rect style="opacity:.1;fill:#45d8ff" id="XMLID_68113_" width=".3" height="812.6" x="760.8" y="91.8" class="st1"/></g><g id="XMLID_68110_"><rect style="opacity:.1;fill:#45d8ff" id="XMLID_68111_" width=".3" height="812.6" x="760.8" y="91.8" class="st1"/></g><g id="XMLID_68104_"><rect style="opacity:.1;fill:#45d8ff" id="XMLID_68105_" width=".3" height="812.6" x="735" y="91.8" class="st1"/></g><g id="XMLID_68102_"><rect style="opacity:.1;fill:#45d8ff" id="XMLID_68103_" width=".3" height="812.6" x="709.3" y="91.8" class="st1"/></g><g id="XMLID_68100_"><rect style="opacity:.1;fill:#45d8ff" id="XMLID_68101_" width=".3" height="812.6" x="683.5" y="91.8" class="st1"/></g><g id="XMLID_68098_"><rect style="opacity:.1;fill:#45d8ff" id="XMLID_68099_" width=".3" height="812.6" x="657.8" y="91.8" class="st1"/></g><g id="XMLID_68096_"><rect style="opacity:.1;fill:#45d8ff" id="XMLID_68097_" width=".3" height="812.6" x="657.8" y="91.8" class="st1"/></g><g id="XMLID_68094_"><rect style="opacity:.1;fill:#45d8ff" id="XMLID_68095_" width=".3" height="812.6" x="657.8" y="91.8" class="st1"/></g><g id="XMLID_68092_"><rect style="opacity:.1;fill:#45d8ff" id="XMLID_68093_" width=".3" height="812.6" x="657.8" y="91.8" class="st1"/></g><g id="XMLID_68086_"><rect style="opacity:.1;fill:#45d8ff" id="XMLID_68087_" width=".3" height="812.6" x="632" y="91.8" class="st1"/></g><g id="XMLID_68084_"><rect style="opacity:.1;fill:#45d8ff" id="XMLID_68085_" width=".3" height="812.6" x="606.2" y="91.8" class="st1"/></g><g id="XMLID_68082_"><rect style="opacity:.1;fill:#45d8ff" id="XMLID_68083_" width=".3" height="812.6" x="580.5" y="91.8" class="st1"/></g><g id="XMLID_68080_"><rect style="opacity:.1;fill:#45d8ff" id="XMLID_68081_" width=".3" height="812.6" x="554.7" y="91.8" class="st1"/></g><g id="XMLID_68078_"><rect style="opacity:.1;fill:#45d8ff" id="XMLID_68079_" width=".3" height="812.6" x="554.7" y="91.8" class="st1"/></g><g id="XMLID_68076_"><rect style="opacity:.1;fill:#45d8ff" id="XMLID_68077_" width=".3" height="812.6" x="554.7" y="91.8" class="st1"/></g><g id="XMLID_68074_"><rect style="opacity:.1;fill:#45d8ff" id="XMLID_68075_" width=".3" height="812.6" x="554.7" y="91.8" class="st1"/></g><g id="XMLID_68068_"><rect style="opacity:.1;fill:#45d8ff" id="XMLID_68069_" width=".3" height="812.6" x="529" y="91.8" class="st1"/></g><g id="XMLID_68066_"><rect style="opacity:.1;fill:#45d8ff" id="XMLID_68067_" width=".3" height="812.6" x="503.2" y="91.8" class="st1"/></g><g id="XMLID_68064_"><rect style="opacity:.1;fill:#45d8ff" id="XMLID_68065_" width=".3" height="812.6" x="477.5" y="91.8" class="st1"/></g><g id="XMLID_68062_"><rect style="opacity:.1;fill:#45d8ff" id="XMLID_68063_" width=".3" height="812.6" x="451.7" y="91.8" class="st1"/></g><g id="XMLID_68060_"><rect style="opacity:.1;fill:#45d8ff" id="XMLID_68061_" width=".3" height="812.6" x="451.7" y="91.8" class="st1"/></g><g id="XMLID_68058_"><rect style="opacity:.1;fill:#45d8ff" id="XMLID_68059_" width=".3" height="812.6" x="451.7" y="91.8" class="st1"/></g><g id="XMLID_68056_"><rect style="opacity:.1;fill:#45d8ff" id="XMLID_68057_" width=".3" height="812.6" x="451.7" y="91.8" class="st1"/></g><g id="XMLID_68050_"><rect style="opacity:.1;fill:#45d8ff" id="XMLID_68051_" width=".3" height="812.6" x="425.9" y="91.8" class="st1"/></g><g id="XMLID_68048_"><rect style="opacity:.1;fill:#45d8ff" id="XMLID_68049_" width=".3" height="812.6" x="400.2" y="91.8" class="st1"/></g><g id="XMLID_68046_"><rect style="opacity:.1;fill:#45d8ff" id="XMLID_68047_" width=".3" height="812.6" x="374.4" y="91.8" class="st1"/></g><g id="XMLID_68044_"><rect style="opacity:.1;fill:#45d8ff" id="XMLID_68045_" width=".3" height="812.6" x="348.7" y="91.8" class="st1"/></g><g id="XMLID_68042_"><rect style="opacity:.1;fill:#45d8ff" id="XMLID_68043_" width=".3" height="812.6" x="348.7" y="91.8" class="st1"/></g><g id="XMLID_68040_"><rect style="opacity:.1;fill:#45d8ff" id="XMLID_68041_" width=".3" height="812.6" x="348.7" y="91.8" class="st1"/></g><g id="XMLID_68038_"><rect style="opacity:.1;fill:#45d8ff" id="XMLID_68039_" width=".3" height="812.6" x="348.7" y="91.8" class="st1"/></g><g id="XMLID_68032_"><rect style="opacity:.1;fill:#45d8ff" id="XMLID_68033_" width=".3" height="812.6" x="322.9" y="91.8" class="st1"/></g><g id="XMLID_68030_"><rect style="opacity:.1;fill:#45d8ff" id="XMLID_68031_" width=".3" height="812.6" x="297.2" y="91.8" class="st1"/></g><g id="XMLID_68028_"><rect style="opacity:.1;fill:#45d8ff" id="XMLID_68029_" width=".3" height="812.6" x="271.4" y="91.8" class="st1"/></g><g id="XMLID_68026_"><rect style="opacity:.1;fill:#45d8ff" id="XMLID_68027_" width=".3" height="812.6" x="245.6" y="91.8" class="st1"/></g><g id="XMLID_68024_"><rect style="opacity:.1;fill:#45d8ff" id="XMLID_68025_" width=".3" height="812.6" x="245.6" y="91.8" class="st1"/></g><g id="XMLID_68022_"><rect style="opacity:.1;fill:#45d8ff" id="XMLID_68023_" width=".3" height="812.6" x="245.6" y="91.8" class="st1"/></g><g id="XMLID_68020_"><rect style="opacity:.1;fill:#45d8ff" id="XMLID_68021_" width=".3" height="812.6" x="245.6" y="91.8" class="st1"/></g><g id="XMLID_68018_"><rect style="opacity:.1;fill:#45d8ff" id="XMLID_68019_" width=".3" height="812.6" x="245.6" y="91.8" class="st1"/></g><g id="XMLID_68012_"><rect style="opacity:.1;fill:#45d8ff" id="XMLID_68013_" width=".3" height="812.6" x="219.9" y="91.8" class="st1"/></g><g id="XMLID_68010_"><rect style="opacity:.1;fill:#45d8ff" id="XMLID_68011_" width=".3" height="812.6" x="194.1" y="91.8" class="st1"/></g><g id="XMLID_68008_"><rect style="opacity:.1;fill:#45d8ff" id="XMLID_68009_" width=".3" height="812.6" x="168.4" y="91.8" class="st1"/></g></g></g></g></svg>