<svg xmlns="http://www.w3.org/2000/svg" xmlns:svg="http://www.w3.org/2000/svg" id="Ñëîé_1" data-name="Ñëîé 1" version="1.1" viewBox="0 0 281.17 266.74"><metadata id="metadata454"/><defs id="defs4"><style id="style2">.cls-1{fill:#ffd345}</style></defs><title id="title6">hud-4</title><path style="fill:#ffd345" id="_Compound_Path_" d="m 281.2,145.82 h -7.25 l -8.57,-11.76 8.57,-11.76 h 7.25 z m -6.76,-1 h 5.76 v -21.55 h -5.79 l -7.86,10.79 z" class="cls-1" data-name="&lt;Compound Path&gt;"/><path style="fill:#ffd345" id="_Compound_Path_2" d="m 0,122.3 h 7.25 l 8.57,11.76 -8.57,11.76 H 0 Z m 6.76,1 H 0.97 v 21.59 h 5.79 l 7.86,-10.79 z" class="cls-1" data-name="&lt;Compound Path&gt;"/><path style="fill:#ffd345;stroke-width:1.3894341" id="_Compound_Path_4" d="M 227.49336,132.8373 H 204.83169 L 184.35143,111.78737 H 96.817077 L 76.336818,132.8373 H 54.522702 A 1.222702,1.222702 0 0 0 53.3,134.06 v 0 a 1.222702,1.222702 0 0 0 1.222702,1.2227 h 21.814116 l 20.480259,21.04993 h 87.534353 l 20.48026,-21.04993 h 22.66167 a 1.222702,1.222702 0 0 0 1.2227,-1.2227 v 0 a 1.222702,1.222702 0 0 0 -1.2227,-1.2227 z m -44.18401,21.04992 H 97.91473 L 78.629384,134.07389 97.91473,114.26056 h 85.39462 l 19.28535,19.81333 z" class="cls-1" data-name="&lt;Compound Path&gt;"/><rect style="fill:#ffd345" id="_Path_342" width="73.14" height=".59" x="0" y="133.76" class="cls-1" data-name="&lt;Path&gt;"/><rect style="fill:#ffd345" id="_Path_343" width="73.14" height=".59" x="208.03" y="133.76" class="cls-1" data-name="&lt;Path&gt;"/></svg>